<svg xmlns="http://www.w3.org/2000/svg" viewBox="0 0 1240 700" role="img" aria-labelledby="title desc">
<title id="title">Director IDV launch docket</title>
<desc id="desc">A professional client communications launch docket showing partner sign-off, send groups, approved email copy, reminders and evidence logging for Companies House ID verification.</desc>
<defs>
  <filter id="lift" x="-10%" y="-18%" width="126%" height="150%"><feDropShadow dx="0" dy="34" stdDeviation="28" flood-color="#173c32" flood-opacity="0.20"/></filter>
  <pattern id="grain" width="52" height="52" patternUnits="userSpaceOnUse"><path d="M52 0H0v52" fill="none" stroke="#173c32" stroke-opacity=".045"/><circle cx="14" cy="34" r="1.3" fill="#b9822e" fill-opacity=".18"/></pattern>
  <style>.bg{fill:#f5efe2}.paper{fill:#fffdf7;stroke:#c7bda9}.deep{fill:#173c32}.green{fill:#1f6a52}.mint{fill:#dceadf}.amber{fill:#d8a24f}.red{fill:#a74739}.ink{fill:#17231f}.muted{fill:#60706a}.rule{stroke:#d7d0c1;stroke-width:2}.mono{font-family:'Courier New',monospace;font-weight:900;letter-spacing:.11em}.sans{font-family:Aptos,'Segoe UI',sans-serif;font-weight:800}.serif{font-family:Georgia,'Times New Roman',serif;font-weight:700}</style>
</defs>
<rect width="1240" height="700" rx="40" class="bg"/><rect width="1240" height="700" rx="40" fill="url(#grain)"/>
<text x="58" y="74" class="mono" font-size="15" fill="#1f6a52">DIRECTOR IDV / CLIENT SEND DOCKET</text><text x="58" y="138" class="serif ink" font-size="60">A first-send file the whole practice can trust.</text>
<g filter="url(#lift)"><rect x="64" y="196" width="332" height="388" rx="28" class="paper"/><rect x="94" y="230" width="152" height="30" rx="15" class="deep"/><text x="112" y="251" class="mono" font-size="13" fill="#fff">SIGN-OFF</text><text x="94" y="316" class="serif ink" font-size="35">Partner-approved launch note</text><path d="M96 358h242M96 390h206M96 422h228" class="rule"/><rect x="96" y="486" width="208" height="44" rx="22" class="mint"/><text x="122" y="514" class="sans" font-size="16" fill="#173c32">Scope + caveats logged</text></g>
<g filter="url(#lift)"><rect x="440" y="172" width="360" height="438" rx="30" class="deep"/><text x="474" y="222" class="mono" font-size="13" fill="#dceadf">SEND GROUPS</text><text x="474" y="282" class="serif" font-size="35" fill="#fffdf7">Who receives which wording?</text><g class="sans" font-size="16"><rect x="474" y="324" width="270" height="54" rx="15" fill="#fffdf7"/><text x="496" y="358" fill="#17231f">Directors · explainer + FAQ</text><rect x="474" y="398" width="270" height="54" rx="15" fill="#fffdf7"/><text x="496" y="432" fill="#17231f">PSCs · boundary note</text><rect x="474" y="472" width="270" height="54" rx="15" fill="#fffdf7"/><text x="496" y="506" fill="#17231f">Silent clients · chase sequence</text></g><path d="M474 558h238" stroke="#dceadf" stroke-opacity=".32" stroke-width="2"/></g>
<g filter="url(#lift)"><rect x="844" y="210" width="328" height="356" rx="28" class="paper"/><rect x="874" y="242" width="162" height="30" rx="15" class="green"/><text x="894" y="263" class="mono" font-size="13" fill="#fff">EVIDENCE LOG</text><text x="874" y="326" class="serif ink" font-size="34">Every send returns to the tracker</text><g class="sans" font-size="15"><circle cx="892" cy="376" r="10" class="green"/><text x="918" y="381" fill="#17231f">Message version recorded</text><circle cx="892" cy="430" r="10" class="amber"/><text x="918" y="435" fill="#17231f">Reminder date assigned</text><circle cx="892" cy="484" r="10" class="red"/><text x="918" y="489" fill="#17231f">Exception owner named</text></g></g>
<path d="M398 386 C 438 326, 482 326, 522 386" stroke="#1f6a52" stroke-width="4" stroke-dasharray="10 9" fill="none"/><path d="M800 386 C 842 326, 884 326, 926 386" stroke="#1f6a52" stroke-width="4" stroke-dasharray="10 9" fill="none"/>
<g transform="translate(958 82) rotate(7)"><rect width="178" height="58" rx="8" fill="none" stroke="#a74739" stroke-width="4"/><text x="24" y="36" class="mono" font-size="14" fill="#a74739">FIRST SEND READY</text></g><rect x="74" y="628" width="828" height="34" rx="17" fill="#173c32"/><text x="98" y="650" class="mono" font-size="12" fill="#fff">PARTNER APPROVAL → SEND GROUPS → APPROVED COPY → REMINDER CADENCE → DATED EVIDENCE LOG</text>
</svg>